PathFileType	4	(X/Y/Z)	rand1.trc
DataRate	CameraRate	NumFrames	NumMarkers	Units	OrigDataRate	OrigDataStartFrame	OrigNumFrames
100.0	100.0	11	17	mm	100.0	172	1373
Frame#	Time	STER			XIPH			T10			T1			CLAV_SC			CLAV_AC			SCAP_AA			SCAP_CP			SCAP_TS			SCAP_IA			DELT			ARMl			EPICm			EPICl			LARM_elb			STYLr			STYLu		
		X1	Y1	Z1	X2	Y2	Z2	X3	Y3	Z3	X4	Y4	Z4	X5	Y5	Z5	X6	Y6	Z6	X7	Y7	Z7	X8	Y8	Z8	X9	Y9	Z9	X10	Y10	Z10	X11	Y11	Z11	X12	Y12	Z12	X13	Y13	Z13	X14	Y14	Z14	X15	Y15	Z15	X16	Y16	Z16	X17	Y17	Z17

172	1.71	397.9852600097656	95.38579559326172	1430.1292724609375	396.46624755859375	142.4534149169922	1267.7264404296875	380.3892822265625	-88.95266723632812	1240.572021484375	372.7831115722656	-61.7763557434082	1473.8037109375	433.4269714355469	85.73495483398438	1434.927490234375	580.2354736328125	4.170637130737305	1456.191650390625	580.9890747070312	-42.82892608642578	1441.0323486328125	525.08642578125	-45.32439422607422	1471.6646728515625	503.4338684082031	-101.44860076904297	1419.521728515625	481.95916748046875	-113.94898986816406	1279.4129638671875	646.11474609375	-31.62974739074707	1306.0562744140625	659.8851928710938	-47.538414001464844	1259.6671142578125	640.83154296875	-10.79510498046875	1096.9267578125	712.6512451171875	-62.47689437866211	1151.3826904296875	657.2749633789062	-55.366058349609375	1091.339599609375	879.2174682617188	48.2711067199707	952.08203125	812.2581787109375	23.78768539428711	911.7523803710938
173	1.72	397.94708251953125	95.25357055664062	1430.17626953125	396.5044250488281	142.3721466064453	1267.7344970703125	380.3953857421875	-89.02748107910156	1240.5386962890625	372.72613525390625	-61.89784240722656	1473.7689208984375	433.4041748046875	85.58026123046875	1434.9591064453125	580.2347412109375	3.9926743507385254	1456.228515625	580.9033813476562	-43.01967239379883	1441.0452880859375	525.0397338867188	-45.49557876586914	1471.6343994140625	503.3893127441406	-101.59095001220703	1419.4193115234375	481.8561096191406	-114.07009887695312	1279.396484375	646.1077270507812	-31.958812713623047	1306.09814453125	659.826416015625	-47.9150390625	1259.7442626953125	640.7264404296875	-11.258764266967773	1096.8978271484375	712.6669921875	-62.944297790527344	1151.4815673828125	657.3355712890625	-55.794715881347656	1091.41845703125	879.3291625976562	47.54558181762695	952.1270141601562	812.4680786132812	23.272151947021484	911.8956909179688
174	1.73	398.0386657714844	95.14044189453125	1430.202880859375	396.579345703125	142.2809600830078	1267.761962890625	380.35565185546875	-89.095458984375	1240.5025634765625	372.6878356933594	-62.042816162109375	1473.7408447265625	433.3697204589844	85.41740417480469	1434.9881591796875	580.193603515625	3.805129051208496	1456.2584228515625	580.8611450195312	-43.21248245239258	1441.090087890625	524.9595336914062	-45.65604782104492	1471.662841796875	503.3044128417969	-101.7345199584961	1419.5242919921875	481.8758544921875	-114.17552185058594	1279.3824462890625	646.1038818359375	-32.27382278442383	1306.1556396484375	659.633544921875	-48.295684814453125	1259.8468017578125	639.4363403320312	-12.526321411132812	1096.724609375	712.7109985351562	-63.36273956298828	1151.595458984375	657.3812866210938	-56.22920608520508	1091.4805908203125	879.4971313476562	46.82404327392578	952.1895141601562	812.677001953125	22.697690963745117	912.0107421875
175	1.74	397.88177490234375	94.9864501953125	1430.215576171875	396.5743103027344	142.1724853515625	1267.769775390625	380.3569641113281	-89.21438598632812	1240.4769287109375	372.65704345703125	-62.1620979309082	1473.69384765625	433.3730163574219	85.28343200683594	1435.0203857421875	580.19384765625	3.635355234146118	1456.275390625	580.8265991210938	-43.37202453613281	1441.097412109375	524.9850463867188	-45.79582977294922	1471.672607421875	503.2937316894531	-101.86721801757812	1419.4964599609375	481.8343811035156	-114.29473114013672	1279.3726806640625	646.0819702148438	-32.580039978027344	1306.1964111328125	659.6531372070312	-48.61577606201172	1259.910888671875	639.5341186523438	-12.937332153320312	1096.7247314453125	712.7408447265625	-63.813777923583984	1151.677734375	657.453125	-56.652381896972656	1091.5765380859375	879.7759399414062	46.076866149902344	952.3008422851562	812.9008178710938	21.675464630126953	912.0030517578125
176	1.75	397.813232421875	94.84712219238281	1430.26416015625	396.621826171875	142.0926513671875	1267.7994384765625	380.3611755371094	-89.28999328613281	1240.456298828125	372.6253967285156	-62.26409149169922	1473.690185546875	433.4103698730469	85.16921997070312	1435.043212890625	580.2059326171875	3.4790279865264893	1456.284912109375	580.76708984375	-43.52871322631836	1441.1021728515625	524.893310546875	-45.943145751953125	1471.697021484375	503.1967468261719	-102.0088119506836	1419.5426025390625	481.8214111328125	-114.41890716552734	1279.4013671875	646.1060180664062	-32.86037063598633	1306.2664794921875	659.6419067382812	-48.933021545410156	1259.982421875	640.9263916015625	-12.572868347167969	1097.033203125	712.78955078125	-64.2184066772461	1151.7767333984375	657.5253295898438	-57.07619857788086	1091.6746826171875	880.0518188476562	45.366573333740234	952.3375854492188	813.1573486328125	21.587627410888672	912.1742553710938
177	1.76	397.8198547363281	94.74368286132812	1430.27099609375	396.2458190917969	141.98281860351562	1267.847412109375	380.3458557128906	-89.38057708740234	1240.453369140625	372.6142578125	-62.35805130004883	1473.6632080078125	433.3833312988281	85.04456329345703	1435.0657958984375	580.1923828125	3.3292503356933594	1456.30078125	580.7974243164062	-43.66785430908203	1441.1583251953125	524.933837890625	-46.06134033203125	1471.6787109375	503.2039794921875	-102.12077331542969	1419.5362548828125	481.8199462890625	-114.54532623291016	1279.3909912109375	646.1224975585938	-33.11642074584961	1306.3125	659.8121948242188	-49.19186019897461	1259.9354248046875	640.8031616210938	-13.045696258544922	1097.0565185546875	712.8187866210938	-64.62800598144531	1151.86865234375	657.5757446289062	-57.430152893066406	1091.745849609375	880.24755859375	44.627410888671875	952.3970336914062	813.0924682617188	19.364112854003906	912.0267944335938
178	1.77	397.9866943359375	94.67066192626953	1430.277587890625	396.70709228515625	141.89199829101562	1267.8043212890625	380.3282775878906	-89.47371673583984	1240.4534912109375	372.5696105957031	-62.4745979309082	1473.6275634765625	433.4971008300781	84.98854064941406	1434.72900390625	580.2218017578125	3.1893482208251953	1456.3182373046875	580.7781982421875	-43.80259323120117	1441.197998046875	524.9141845703125	-46.16432189941406	1471.695068359375	503.2635803222656	-102.25521087646484	1419.442626953125	481.7181091308594	-114.68024444580078	1279.461669921875	646.1463012695312	-33.351802825927734	1306.34033203125	659.8154296875	-49.47591781616211	1260.00537109375	640.81005859375	-13.452993392944336	1097.1141357421875	712.853759765625	-65.01806640625	1151.9354248046875	657.6249389648438	-57.82064437866211	1091.7841796875	880.4317626953125	43.93663024902344	952.3392333984375	813.2587890625	18.631818771362305	912.0565795898438
179	1.78	397.9329833984375	94.5233154296875	1430.2919921875	396.76654052734375	141.80233764648438	1267.7957763671875	380.31512451171875	-89.56314849853516	1240.45703125	372.55255126953125	-62.56989669799805	1473.599365234375	433.3997802734375	84.82999420166016	1435.0797119140625	580.196533203125	3.081704616546631	1456.32666015625	580.777587890625	-43.94267654418945	1441.18505859375	524.9478759765625	-46.27608871459961	1471.69091796875	503.2403869628906	-102.37672424316406	1419.4505615234375	481.7917785644531	-114.77286529541016	1279.394287109375	646.1502075195312	-33.56256103515625	1306.337646484375	659.7348022460938	-49.76185989379883	1260.1221923828125	639.702880859375	-14.46695613861084	1096.8568115234375	712.8886108398438	-65.37860870361328	1151.9893798828125	657.6639404296875	-58.21625900268555	1091.8289794921875	880.489990234375	43.2840576171875	952.3404541015625	813.3312377929688	18.02094841003418	912.0263061523438
180	1.79	398.0735778808594	94.48583221435547	1430.3349609375	396.8010559082031	141.68109130859375	1267.782958984375	380.3182373046875	-89.68193817138672	1240.4715576171875	372.54632568359375	-62.65938949584961	1473.5909423828125	433.49932861328125	84.7529296875	1435.077880859375	580.25	2.963547706604004	1456.2957763671875	580.8001708984375	-44.05351638793945	1441.193359375	524.9287719726562	-46.36063003540039	1471.6982421875	503.1153564453125	-102.4774169921875	1419.5045166015625	481.7706604003906	-114.88582611083984	1279.3927001953125	646.1825561523438	-33.77552032470703	1306.3597412109375	659.7366333007812	-50.026031494140625	1260.1180419921875	640.4047241210938	-14.370336532592773	1096.9940185546875	712.9154663085938	-65.73686218261719	1152.0357666015625	657.6743774414062	-58.51381301879883	1091.8768310546875	880.716064453125	42.63348388671875	952.3222045898438	813.4472045898438	17.088436126708984	911.80322265625
181	1.8	398.1700439453125	94.38172149658203	1430.3074951171875	397.4689636230469	141.6044158935547	1267.75146484375	380.2673645019531	-89.75716400146484	1240.4752197265625	372.51568603515625	-62.7552490234375	1473.570068359375	433.5384521484375	84.66748046875	1435.0784912109375	580.266357421875	2.8626952171325684	1456.2801513671875	580.7587280273438	-44.17583084106445	1441.185791015625	524.9213256835938	-46.449005126953125	1471.6832275390625	503.2062072753906	-102.58033752441406	1419.4818115234375	481.7779846191406	-114.99796295166016	1279.4185791015625	646.1994018554688	-33.99775695800781	1306.3468017578125	659.789306640625	-50.23969268798828	1260.0709228515625	641.1419677734375	-14.342066764831543	1097.0640869140625	712.90185546875	-66.06299591064453	1152.0323486328125	657.7296142578125	-58.85784912109375	1091.8790283203125	880.6689453125	42.01516342163086	952.3054809570312	813.400390625	16.851428985595703	911.9395141601562
182	1.81	397.94439697265625	94.21556854248047	1430.3209228515625	396.9167785644531	141.4569549560547	1267.739013671875	380.2820739746094	-89.86778259277344	1240.488525390625	372.54986572265625	-62.866737365722656	1473.577392578125	433.5466003417969	84.55908203125	1435.0743408203125	580.3020629882812	2.7604479789733887	1456.2642822265625	580.819580078125	-44.27959442138672	1441.18359375	524.9368896484375	-46.53681564331055	1471.69580078125	503.2298583984375	-102.6627197265625	1419.470947265625	481.6760559082031	-115.11746978759766	1279.443603515625	646.22998046875	-34.213478088378906	1306.3277587890625	659.7618408203125	-50.48469161987305	1260.107177734375	640.4830322265625	-15.017171859741211	1097.0220947265625	712.9139404296875	-66.35869598388672	1152.0225830078125	657.7299194335938	-59.15228271484375	1091.874755859375	880.8067016601562	41.48252487182617	952.21484375	813.4542846679688	16.087003707885742	911.70166015625
